# xmcd CD database file
#
# Track frame offsets:
#	150
#	16174
#	27550
#	43579
#	67169
#	82660
#	101018
#	117103
#	129458
#	142900
#	160417
#	172501
#	182443
#
# Disc length: 2665 seconds
#
# Revision: 0
# Processed by: cddbd v1.5.2PL0 Copyright (c) Steve Scherf et al.
# Submitted via: CDex 1.70beta2
#
DISCID=9a0a670d
DTITLE=St. Johny and Charlie Slavík - These Times Are Gone
DYEAR=2008
DGENRE=Blues
TTITLE0=Lonesone Valley
TTITLE1=Mississippi River Blues
TTITLE2=Blow Wind Blow
TTITLE3=C. C. Rider
TTITLE4=Freight Train
TTITLE5=Baby please dont go
TTITLE6=Mijo Band
TTITLE7=These Timer Are Gone
TTITLE8=Stack O`lee Blues
TTITLE9=Thats All Right
TTITLE10=When Did You Leave Heaven
TTITLE11=Hey Porter
TTITLE12=Rock This House
EXTD=YEAR: 2008
EXTT0=
EXTT1=
EXTT2=
EXTT3=
EXTT4=
EXTT5=
EXTT6=
EXTT7=
EXTT8=
EXTT9=
EXTT10=
EXTT11=
EXTT12=
PLAYORDER=
